<svg xmlns="http://www.w3.org/2000/svg" xmlns:xlink="http://www.w3.org/1999/xlink" width="160" zoomAndPan="magnify" viewBox="0 0 120 119.999999" height="160" preserveAspectRatio="xMidYMid meet" version="1.0"><defs><g/><clipPath id="e81ee62e8b"><path d="M 91 43 L 100.152344 43 L 100.152344 52 L 91 52 Z M 91 43 " clip-rule="nonzero"/></clipPath><clipPath id="ca583d96e9"><path d="M 68 3.980469 L 75 3.980469 L 75 12 L 68 12 Z M 68 3.980469 " clip-rule="nonzero"/></clipPath><clipPath id="0d8f1bf52b"><path d="M 19.902344 43 L 29 43 L 29 52 L 19.902344 52 Z M 19.902344 43 " clip-rule="nonzero"/></clipPath><clipPath id="cd221c8b50"><path d="M 45 3.980469 L 52 3.980469 L 52 12 L 45 12 Z M 45 3.980469 " clip-rule="nonzero"/></clipPath><clipPath id="d65f56203e"><path d="M 49 82 L 70 82 L 70 86.480469 L 49 86.480469 Z M 49 82 " clip-rule="nonzero"/></clipPath><clipPath id="f00fea3419"><path d="M 12.332031 87.757812 L 108 87.757812 L 108 111.757812 L 12.332031 111.757812 Z M 12.332031 87.757812 " clip-rule="nonzero"/></clipPath></defs><path fill="#f79410" d="M 84.265625 72.566406 C 80.027344 72.773438 76.464844 70.375 76.464844 70.375 C 76.464844 70.375 79.769531 67.628906 84.007812 67.417969 C 88.242188 67.207031 91.808594 69.609375 91.808594 69.609375 C 91.808594 69.609375 88.5 72.355469 84.265625 72.566406 " fill-opacity="1" fill-rule="nonzero"/><path fill="#f79410" d="M 80.613281 65.699219 C 79.496094 68.703125 76.535156 70.375 76.535156 70.375 C 76.535156 70.375 75.382812 67.175781 76.5 64.171875 C 77.621094 61.164062 80.582031 59.492188 80.582031 59.492188 C 80.582031 59.492188 81.730469 62.691406 80.613281 65.699219 " fill-opacity="1" fill-rule="nonzero"/><path fill="#f79410" d="M 86.5625 59.894531 C 85.84375 62.988281 83.382812 65.0625 83.382812 65.0625 C 83.382812 65.0625 82.082031 62.117188 82.800781 59.019531 C 83.519531 55.925781 85.984375 53.855469 85.984375 53.855469 C 85.984375 53.855469 87.28125 56.800781 86.5625 59.894531 " fill-opacity="1" fill-rule="nonzero"/><path fill="#f79410" d="M 91.015625 51.214844 C 91.164062 54.390625 89.359375 57.054688 89.359375 57.054688 C 89.359375 57.054688 87.308594 54.570312 87.15625 51.398438 C 87.003906 48.222656 88.8125 45.558594 88.8125 45.558594 C 88.8125 45.558594 90.863281 48.039062 91.015625 51.214844 " fill-opacity="1" fill-rule="nonzero"/><path fill="#f79410" d="M 92.265625 39.757812 C 93.636719 42.625 93.003906 45.78125 93.003906 45.78125 C 93.003906 45.78125 90.152344 44.285156 88.78125 41.417969 C 87.410156 38.550781 88.042969 35.394531 88.042969 35.394531 C 88.042969 35.394531 90.894531 36.886719 92.265625 39.757812 " fill-opacity="1" fill-rule="nonzero"/><path fill="#f79410" d="M 90.554688 30.472656 C 92.660156 32.847656 92.925781 36.058594 92.925781 36.058594 C 92.925781 36.058594 89.773438 35.410156 87.664062 33.035156 C 85.554688 30.65625 85.289062 27.449219 85.289062 27.449219 C 85.289062 27.449219 88.445312 28.09375 90.554688 30.472656 " fill-opacity="1" fill-rule="nonzero"/><path fill="#f79410" d="M 85.953125 22.34375 C 88.738281 23.878906 90.0625 26.8125 90.0625 26.8125 C 90.0625 26.8125 86.875 27.257812 84.089844 25.726562 C 81.308594 24.191406 79.980469 21.257812 79.980469 21.257812 C 79.980469 21.257812 83.171875 20.8125 85.953125 22.34375 " fill-opacity="1" fill-rule="nonzero"/><path fill="#f79410" d="M 80.078125 15.644531 C 83.121094 16.570312 85.023438 19.167969 85.023438 19.167969 C 85.023438 19.167969 81.992188 20.261719 78.953125 19.335938 C 75.914062 18.410156 74.011719 15.8125 74.011719 15.8125 C 74.011719 15.8125 77.039062 14.71875 80.078125 15.644531 " fill-opacity="1" fill-rule="nonzero"/><path fill="#f79410" d="M 71.15625 10.335938 C 74.328125 10.527344 76.785156 12.609375 76.785156 12.609375 C 76.785156 12.609375 74.097656 14.382812 70.925781 14.191406 C 67.753906 14 65.296875 11.917969 65.296875 11.917969 C 65.296875 11.917969 67.984375 10.144531 71.15625 10.335938 " fill-opacity="1" fill-rule="nonzero"/><path fill="#f79410" d="M 73.53125 68.503906 C 71.128906 72.480469 66.332031 73.984375 66.332031 73.984375 C 66.332031 73.984375 65.429688 69.042969 67.835938 65.066406 C 70.234375 61.089844 75.03125 59.582031 75.03125 59.582031 C 75.03125 59.582031 75.933594 64.527344 73.53125 68.503906 " fill-opacity="1" fill-rule="nonzero"/><path fill="#f79410" d="M 74.636719 78.964844 C 69.738281 77.933594 66.394531 74.121094 66.394531 74.121094 C 66.394531 74.121094 70.996094 71.980469 75.894531 73.015625 C 80.792969 74.050781 84.136719 77.863281 84.136719 77.863281 C 84.136719 77.863281 79.535156 80 74.636719 78.964844 " fill-opacity="1" fill-rule="nonzero"/><path fill="#f79410" d="M 89.910156 64.929688 C 86.785156 66.085938 83.550781 65.125 83.550781 65.125 C 83.550781 65.125 85.382812 62.292969 88.503906 61.136719 C 91.625 59.980469 94.859375 60.9375 94.859375 60.9375 C 94.859375 60.9375 93.03125 63.769531 89.910156 64.929688 " fill-opacity="1" fill-rule="nonzero"/><path fill="#f79410" d="M 94.699219 56.699219 C 92.003906 58.652344 88.632812 58.597656 88.632812 58.597656 C 88.632812 58.597656 89.632812 55.375 92.328125 53.421875 C 95.023438 51.46875 98.398438 51.527344 98.398438 51.527344 C 98.398438 51.527344 97.398438 54.746094 94.699219 56.699219 " fill-opacity="1" fill-rule="nonzero"/><g clip-path="url(#e81ee62e8b)"><path fill="#f79410" d="M 97.410156 48.816406 C 95.085938 51.199219 91.75 51.71875 91.75 51.71875 C 91.75 51.71875 92.1875 48.375 94.511719 45.992188 C 96.835938 43.609375 100.167969 43.089844 100.167969 43.089844 C 100.167969 43.089844 99.730469 46.433594 97.410156 48.816406 " fill-opacity="1" fill-rule="nonzero"/></g><path fill="#f79410" d="M 98.242188 40.203125 C 96.519531 43.050781 93.386719 44.3125 93.386719 44.3125 C 93.386719 44.3125 93.058594 40.957031 94.78125 38.109375 C 96.507812 35.261719 99.636719 34 99.636719 34 C 99.636719 34 99.96875 37.355469 98.242188 40.203125 " fill-opacity="1" fill-rule="nonzero"/><path fill="#f79410" d="M 96.546875 30.742188 C 95.695312 33.964844 93.050781 36.058594 93.050781 36.058594 C 93.050781 36.058594 91.785156 32.933594 92.632812 29.714844 C 93.480469 26.496094 96.125 24.398438 96.125 24.398438 C 96.125 24.398438 97.394531 27.523438 96.546875 30.742188 " fill-opacity="1" fill-rule="nonzero"/><path fill="#f79410" d="M 93.519531 22.539062 C 93.042969 25.832031 90.65625 28.214844 90.65625 28.214844 C 90.65625 28.214844 89.039062 25.253906 89.515625 21.960938 C 89.992188 18.664062 92.378906 16.285156 92.378906 16.285156 C 92.378906 16.285156 93.996094 19.242188 93.519531 22.539062 " fill-opacity="1" fill-rule="nonzero"/><path fill="#f79410" d="M 88.527344 15.988281 C 89.015625 19.277344 87.414062 22.246094 87.414062 22.246094 C 87.414062 22.246094 85.015625 19.875 84.527344 16.582031 C 84.035156 13.289062 85.640625 10.324219 85.640625 10.324219 C 85.640625 10.324219 88.035156 12.695312 88.527344 15.988281 " fill-opacity="1" fill-rule="nonzero"/><path fill="#f79410" d="M 81.242188 10.304688 C 82.269531 12.9375 81.5 15.6875 81.5 15.6875 C 81.5 15.6875 79.070312 14.179688 78.046875 11.550781 C 77.019531 8.921875 77.785156 6.164062 77.785156 6.164062 C 77.785156 6.164062 80.21875 7.675781 81.242188 10.304688 " fill-opacity="1" fill-rule="nonzero"/><g clip-path="url(#ca583d96e9)"><path fill="#f79410" d="M 72.941406 6.621094 C 74.710938 8.667969 74.902344 11.398438 74.902344 11.398438 C 74.902344 11.398438 72.226562 10.8125 70.457031 8.769531 C 68.6875 6.722656 68.5 3.992188 68.5 3.992188 C 68.5 3.992188 71.175781 4.578125 72.941406 6.621094 " fill-opacity="1" fill-rule="nonzero"/></g><path fill="#f79410" d="M 35.8125 72.566406 C 40.050781 72.773438 43.613281 70.375 43.613281 70.375 C 43.613281 70.375 40.304688 67.628906 36.070312 67.417969 C 31.832031 67.207031 28.269531 69.609375 28.269531 69.609375 C 28.269531 69.609375 31.578125 72.355469 35.8125 72.566406 " fill-opacity="1" fill-rule="nonzero"/><path fill="#f79410" d="M 39.464844 65.699219 C 40.582031 68.703125 43.542969 70.375 43.542969 70.375 C 43.542969 70.375 44.691406 67.175781 43.574219 64.171875 C 42.457031 61.164062 39.496094 59.492188 39.496094 59.492188 C 39.496094 59.492188 38.34375 62.691406 39.464844 65.699219 " fill-opacity="1" fill-rule="nonzero"/><path fill="#f79410" d="M 33.511719 59.894531 C 34.230469 62.988281 36.695312 65.0625 36.695312 65.0625 C 36.695312 65.0625 37.992188 62.117188 37.273438 59.019531 C 36.558594 55.925781 34.09375 53.855469 34.09375 53.855469 C 34.09375 53.855469 32.796875 56.800781 33.511719 59.894531 " fill-opacity="1" fill-rule="nonzero"/><path fill="#f79410" d="M 28.777344 50.894531 C 28.628906 54.066406 30.433594 56.730469 30.433594 56.730469 C 30.433594 56.730469 32.484375 54.25 32.636719 51.078125 C 32.789062 47.902344 30.980469 45.238281 30.980469 45.238281 C 30.980469 45.238281 28.929688 47.71875 28.777344 50.894531 " fill-opacity="1" fill-rule="nonzero"/><path fill="#f79410" d="M 27.8125 39.757812 C 26.441406 42.625 27.074219 45.78125 27.074219 45.78125 C 27.074219 45.78125 29.925781 44.285156 31.296875 41.417969 C 32.667969 38.550781 32.035156 35.394531 32.035156 35.394531 C 32.035156 35.394531 29.179688 36.886719 27.8125 39.757812 " fill-opacity="1" fill-rule="nonzero"/><path fill="#f79410" d="M 29.523438 30.472656 C 27.414062 32.847656 27.148438 36.058594 27.148438 36.058594 C 27.148438 36.058594 30.304688 35.410156 32.414062 33.035156 C 34.523438 30.65625 34.789062 27.449219 34.789062 27.449219 C 34.789062 27.449219 31.632812 28.09375 29.523438 30.472656 " fill-opacity="1" fill-rule="nonzero"/><path fill="#f79410" d="M 34.125 22.34375 C 31.339844 23.878906 30.015625 26.8125 30.015625 26.8125 C 30.015625 26.8125 33.203125 27.257812 35.988281 25.726562 C 38.769531 24.191406 40.097656 21.257812 40.097656 21.257812 C 40.097656 21.257812 36.90625 20.8125 34.125 22.34375 " fill-opacity="1" fill-rule="nonzero"/><path fill="#f79410" d="M 39.996094 15.644531 C 36.957031 16.570312 35.054688 19.167969 35.054688 19.167969 C 35.054688 19.167969 38.082031 20.261719 41.121094 19.335938 C 44.164062 18.410156 46.066406 15.8125 46.066406 15.8125 C 46.066406 15.8125 43.039062 14.71875 39.996094 15.644531 " fill-opacity="1" fill-rule="nonzero"/><path fill="#f79410" d="M 48.921875 10.335938 C 45.75 10.527344 43.292969 12.609375 43.292969 12.609375 C 43.292969 12.609375 45.980469 14.382812 49.152344 14.191406 C 52.324219 14 54.78125 11.917969 54.78125 11.917969 C 54.78125 11.917969 52.09375 10.144531 48.921875 10.335938 " fill-opacity="1" fill-rule="nonzero"/><path fill="#f79410" d="M 46.546875 68.503906 C 48.949219 72.480469 53.742188 73.984375 53.742188 73.984375 C 53.742188 73.984375 54.644531 69.042969 52.242188 65.066406 C 49.84375 61.089844 45.046875 59.582031 45.046875 59.582031 C 45.046875 59.582031 44.148438 64.527344 46.546875 68.503906 " fill-opacity="1" fill-rule="nonzero"/><path fill="#f79410" d="M 45.441406 78.964844 C 50.339844 77.933594 53.683594 74.121094 53.683594 74.121094 C 53.683594 74.121094 49.082031 71.980469 44.183594 73.015625 C 39.285156 74.050781 35.941406 77.863281 35.941406 77.863281 C 35.941406 77.863281 40.539062 80 45.441406 78.964844 " fill-opacity="1" fill-rule="nonzero"/><path fill="#f79410" d="M 30.167969 64.929688 C 33.289062 66.085938 36.523438 65.125 36.523438 65.125 C 36.523438 65.125 34.695312 62.292969 31.574219 61.136719 C 28.453125 59.980469 25.21875 60.9375 25.21875 60.9375 C 25.21875 60.9375 27.046875 63.769531 30.167969 64.929688 " fill-opacity="1" fill-rule="nonzero"/><path fill="#f79410" d="M 25.527344 57.078125 C 28.222656 59.03125 31.597656 58.972656 31.597656 58.972656 C 31.597656 58.972656 30.597656 55.753906 27.898438 53.800781 C 25.203125 51.851562 21.832031 51.902344 21.832031 51.902344 C 21.832031 51.902344 22.832031 55.125 25.527344 57.078125 " fill-opacity="1" fill-rule="nonzero"/><g clip-path="url(#0d8f1bf52b)"><path fill="#f79410" d="M 22.667969 48.816406 C 24.992188 51.199219 28.324219 51.71875 28.324219 51.71875 C 28.324219 51.71875 27.890625 48.375 25.566406 45.992188 C 23.242188 43.609375 19.910156 43.089844 19.910156 43.089844 C 19.910156 43.089844 20.34375 46.433594 22.667969 48.816406 " fill-opacity="1" fill-rule="nonzero"/></g><path fill="#f79410" d="M 21.835938 40.203125 C 23.558594 43.050781 26.6875 44.3125 26.6875 44.3125 C 26.6875 44.3125 27.019531 40.957031 25.296875 38.109375 C 23.570312 35.261719 20.441406 34 20.441406 34 C 20.441406 34 20.109375 37.355469 21.835938 40.203125 " fill-opacity="1" fill-rule="nonzero"/><path fill="#f79410" d="M 23.53125 30.742188 C 24.382812 33.964844 27.023438 36.058594 27.023438 36.058594 C 27.023438 36.058594 28.292969 32.933594 27.445312 29.714844 C 26.59375 26.496094 23.953125 24.398438 23.953125 24.398438 C 23.953125 24.398438 22.683594 27.523438 23.53125 30.742188 " fill-opacity="1" fill-rule="nonzero"/><path fill="#f79410" d="M 26.558594 22.539062 C 27.035156 25.832031 29.421875 28.214844 29.421875 28.214844 C 29.421875 28.214844 31.039062 25.253906 30.5625 21.960938 C 30.085938 18.664062 27.699219 16.285156 27.699219 16.285156 C 27.699219 16.285156 26.082031 19.242188 26.558594 22.539062 " fill-opacity="1" fill-rule="nonzero"/><path fill="#f79410" d="M 31.550781 15.988281 C 31.058594 19.277344 32.664062 22.246094 32.664062 22.246094 C 32.664062 22.246094 35.0625 19.875 35.550781 16.582031 C 36.042969 13.289062 34.4375 10.324219 34.4375 10.324219 C 34.4375 10.324219 32.039062 12.695312 31.550781 15.988281 " fill-opacity="1" fill-rule="nonzero"/><path fill="#f79410" d="M 38.832031 10.304688 C 37.808594 12.9375 38.574219 15.6875 38.574219 15.6875 C 38.574219 15.6875 41.003906 14.179688 42.03125 11.550781 C 43.054688 8.921875 42.289062 6.164062 42.289062 6.164062 C 42.289062 6.164062 39.859375 7.675781 38.832031 10.304688 " fill-opacity="1" fill-rule="nonzero"/><g clip-path="url(#cd221c8b50)"><path fill="#f79410" d="M 47.132812 6.621094 C 45.367188 8.667969 45.175781 11.398438 45.175781 11.398438 C 45.175781 11.398438 47.851562 10.8125 49.621094 8.769531 C 51.386719 6.722656 51.578125 3.992188 51.578125 3.992188 C 51.578125 3.992188 48.902344 4.578125 47.132812 6.621094 " fill-opacity="1" fill-rule="nonzero"/></g><path fill="#f79410" d="M 65.226562 8.101562 C 67.292969 8.394531 69.332031 8.886719 71.3125 9.5625 C 73.292969 10.242188 75.203125 11.113281 77.023438 12.15625 C 80.664062 14.234375 83.914062 17.003906 86.558594 20.273438 C 89.199219 23.546875 91.21875 27.324219 92.476562 31.347656 C 93.738281 35.371094 94.226562 39.632812 93.941406 43.84375 C 93.660156 48.058594 92.578125 52.226562 90.75 56.042969 C 88.929688 59.863281 86.390625 63.339844 83.300781 66.238281 C 80.21875 69.140625 76.578125 71.453125 72.644531 73.027344 C 68.707031 74.601562 64.472656 75.421875 60.234375 75.453125 C 55.996094 75.480469 51.75 74.714844 47.796875 73.191406 C 43.839844 71.671875 40.171875 69.40625 37.046875 66.550781 C 33.921875 63.6875 31.332031 60.25 29.460938 56.453125 C 28.527344 54.554688 27.769531 52.574219 27.207031 50.535156 C 26.644531 48.496094 26.28125 46.40625 26.109375 44.300781 C 25.765625 40.09375 26.199219 35.824219 27.40625 31.785156 C 28.609375 27.746094 30.578125 23.941406 33.171875 20.632812 C 35.773438 17.328125 38.988281 14.519531 42.597656 12.390625 C 44.402344 11.328125 46.304688 10.429688 48.273438 9.722656 C 50.246094 9.019531 52.277344 8.503906 54.339844 8.179688 C 54.480469 8.160156 54.609375 8.253906 54.632812 8.394531 C 54.652344 8.53125 54.5625 8.660156 54.425781 8.6875 C 50.382812 9.429688 46.492188 10.929688 43.007812 13.074219 C 39.527344 15.21875 36.453125 18.015625 33.996094 21.265625 C 31.523438 24.511719 29.664062 28.207031 28.550781 32.121094 C 27.433594 36.027344 27.066406 40.144531 27.441406 44.183594 C 27.816406 48.226562 28.953125 52.183594 30.765625 55.808594 C 32.578125 59.429688 35.074219 62.703125 38.074219 65.417969 C 41.078125 68.128906 44.574219 70.292969 48.355469 71.734375 C 52.132812 73.175781 56.179688 73.898438 60.226562 73.863281 C 64.269531 73.84375 68.308594 73.070312 72.0625 71.574219 C 75.824219 70.082031 79.292969 67.871094 82.253906 65.117188 C 85.222656 62.367188 87.671875 59.058594 89.4375 55.410156 C 91.199219 51.765625 92.28125 47.792969 92.601562 43.746094 C 92.925781 39.703125 92.503906 35.59375 91.332031 31.699219 C 90.164062 27.804688 88.253906 24.132812 85.738281 20.921875 C 83.238281 17.707031 80.128906 14.949219 76.617188 12.851562 C 74.859375 11.800781 73.003906 10.917969 71.082031 10.210938 C 69.160156 9.5 67.171875 8.964844 65.144531 8.625 C 65 8.597656 64.902344 8.460938 64.925781 8.316406 C 64.949219 8.175781 65.082031 8.082031 65.222656 8.101562 L 65.226562 8.101562 " fill-opacity="1" fill-rule="nonzero"/><path fill="#fbbf09" d="M 61.921875 21.273438 L 66.804688 21.285156 L 62.945312 24.273438 L 64.4375 28.917969 L 60.40625 26.171875 L 56.449219 29.03125 L 57.8125 24.34375 L 53.875 21.464844 L 58.75 21.316406 L 60.273438 16.679688 L 61.921875 21.273438 " fill-opacity="1" fill-rule="nonzero"/><path fill="#fbbf09" d="M 75.113281 26.671875 L 78.082031 26.679688 L 75.734375 28.496094 L 76.644531 31.320312 L 74.191406 29.652344 L 71.78125 31.386719 L 72.613281 28.539062 L 70.21875 26.789062 L 73.183594 26.699219 L 74.109375 23.878906 L 75.113281 26.671875 " fill-opacity="1" fill-rule="nonzero"/><path fill="#fbbf09" d="M 46.890625 26.671875 L 49.859375 26.679688 L 47.511719 28.496094 L 48.421875 31.320312 L 45.96875 29.652344 L 43.5625 31.386719 L 44.390625 28.539062 L 41.996094 26.789062 L 44.964844 26.699219 L 45.886719 23.878906 L 46.890625 26.671875 " fill-opacity="1" fill-rule="nonzero"/><path fill="#fbbf09" d="M 63.988281 84.046875 L 55.167969 84.046875 L 57.605469 61.484375 L 61.554688 61.484375 L 63.988281 84.046875 " fill-opacity="1" fill-rule="nonzero"/><path fill="#fbbf09" d="M 61.101562 61.484375 L 61.101562 58.722656 C 67.042969 58.722656 70.9375 56.972656 73.996094 53.519531 C 77.996094 49.003906 78.453125 42.652344 78.449219 39.992188 L 67.902344 39.992188 L 67.902344 37.230469 L 80.964844 37.230469 L 81.082031 38.476562 C 81.121094 38.890625 81.953125 48.621094 75.996094 55.363281 C 72.40625 59.425781 67.84375 61.484375 61.101562 61.484375 " fill-opacity="1" fill-rule="nonzero"/><path fill="#f89b0f" d="M 78.449219 39.992188 L 71.304688 39.992188 L 71.304688 39.28125 L 78.449219 39.28125 C 78.449219 39.496094 78.457031 39.734375 78.449219 39.992188 " fill-opacity="1" fill-rule="nonzero"/><path fill="#f89b0f" d="M 67.371094 60.746094 C 67.867188 60.304688 68.324219 59.824219 68.738281 59.308594 C 71.242188 58.285156 73.320312 56.730469 75.15625 54.652344 C 81.117188 47.910156 80.28125 38.179688 80.242188 37.769531 L 80.191406 37.230469 L 80.964844 37.230469 L 81.082031 38.476562 C 81.09375 38.574219 81.144531 39.167969 81.144531 40.109375 C 81.144531 43.234375 80.574219 50.179688 75.996094 55.363281 C 73.648438 58.019531 70.886719 59.816406 67.371094 60.746094 " fill-opacity="1" fill-rule="nonzero"/><path fill="#fbbf09" d="M 58.054688 61.484375 L 58.054688 58.722656 C 52.113281 58.722656 48.222656 56.972656 45.164062 53.519531 C 41.160156 49.003906 40.707031 42.652344 40.707031 39.992188 L 51.257812 39.992188 L 51.257812 37.230469 L 38.191406 37.230469 L 38.074219 38.476562 C 38.035156 38.890625 37.203125 48.621094 43.160156 55.363281 C 46.75 59.425781 51.316406 61.484375 58.054688 61.484375 " fill-opacity="1" fill-rule="nonzero"/><path fill="#f89b0f" d="M 47.851562 39.992188 L 40.707031 39.992188 C 40.703125 39.734375 40.707031 39.496094 40.707031 39.28125 L 47.851562 39.28125 L 47.851562 39.992188 " fill-opacity="1" fill-rule="nonzero"/><path fill="#f89b0f" d="M 51.785156 60.746094 C 48.269531 59.816406 45.507812 58.019531 43.160156 55.363281 C 38.582031 50.179688 38.015625 43.234375 38.015625 40.109375 C 38.015625 39.167969 38.066406 38.574219 38.074219 38.476562 L 38.191406 37.230469 L 38.964844 37.230469 L 38.914062 37.769531 C 38.875 38.179688 38.042969 47.910156 44 54.652344 C 45.835938 56.730469 47.914062 58.285156 50.417969 59.308594 C 50.832031 59.824219 51.292969 60.304688 51.785156 60.746094 " fill-opacity="1" fill-rule="nonzero"/><path fill="#fbbf09" d="M 47.851562 32.863281 L 47.851562 51.984375 C 47.851562 58.460938 53.101562 63.710938 59.578125 63.710938 C 66.054688 63.710938 71.304688 58.460938 71.304688 51.984375 L 71.304688 32.863281 L 47.851562 32.863281 " fill-opacity="1" fill-rule="nonzero"/><path fill="#f8a00e" d="M 59.5625 63.710938 L 59.5625 63.710938 M 59.546875 63.710938 C 59.546875 63.710938 59.546875 63.710938 59.542969 63.710938 C 59.546875 63.710938 59.546875 63.710938 59.546875 63.710938 M 59.53125 63.710938 C 59.527344 63.710938 59.527344 63.710938 59.527344 63.710938 C 59.527344 63.710938 59.527344 63.710938 59.53125 63.710938 M 59.511719 63.707031 L 59.511719 63.707031 M 59.480469 63.707031 C 59.480469 63.707031 59.476562 63.707031 59.476562 63.707031 C 59.480469 63.707031 59.476562 63.707031 59.480469 63.707031 M 59.460938 63.707031 L 59.460938 63.707031 " fill-opacity="1" fill-rule="nonzero"/><path fill="#f8a00e" d="M 59.578125 63.710938 C 59.574219 63.710938 59.570312 63.710938 59.5625 63.710938 C 59.558594 63.710938 59.550781 63.710938 59.546875 63.710938 C 59.546875 63.710938 59.546875 63.710938 59.542969 63.710938 C 59.539062 63.710938 59.535156 63.710938 59.53125 63.710938 C 59.527344 63.710938 59.527344 63.710938 59.527344 63.710938 C 59.523438 63.710938 59.515625 63.707031 59.511719 63.707031 C 59.5 63.707031 59.488281 63.707031 59.480469 63.707031 C 59.476562 63.707031 59.480469 63.707031 59.476562 63.707031 C 59.472656 63.707031 59.464844 63.707031 59.460938 63.707031 C 56.617188 63.679688 54.015625 62.640625 52 60.929688 C 53.046875 60.871094 54.074219 60.65625 55.070312 60.304688 C 56.976562 61.488281 59.222656 62.175781 61.628906 62.175781 C 62.011719 62.175781 62.324219 61.867188 62.324219 61.480469 C 62.324219 61.097656 62.011719 60.785156 61.628906 60.785156 C 59.847656 60.785156 58.164062 60.363281 56.671875 59.609375 C 64.078125 55.8125 69.542969 44.703125 69.542969 36.574219 C 69.542969 36.554688 69.542969 36.539062 69.542969 36.523438 L 71.058594 36.523438 C 71.140625 36.523438 71.222656 36.519531 71.304688 36.507812 L 71.304688 51.984375 C 71.304688 58.460938 66.054688 63.710938 59.578125 63.710938 " fill-opacity="1" fill-rule="nonzero"/><path fill="#f79011" d="M 72.984375 34.597656 C 72.984375 35.664062 72.121094 36.523438 71.058594 36.523438 L 48.101562 36.523438 C 47.035156 36.523438 46.175781 35.664062 46.175781 34.597656 C 46.175781 33.535156 47.035156 32.671875 48.101562 32.671875 L 71.058594 32.671875 C 72.121094 32.671875 72.984375 33.535156 72.984375 34.597656 " fill-opacity="1" fill-rule="nonzero"/><path fill="#faba09" d="M 70.46875 34.878906 L 47.828125 34.878906 C 47.367188 34.878906 46.992188 34.503906 46.992188 34.042969 C 46.992188 33.582031 47.367188 33.207031 47.828125 33.207031 L 70.46875 33.207031 C 70.933594 33.207031 71.304688 33.582031 71.304688 34.042969 C 71.304688 34.503906 70.933594 34.878906 70.46875 34.878906 " fill-opacity="1" fill-rule="nonzero"/><g clip-path="url(#d65f56203e)"><path fill="#f68912" d="M 69.511719 86.492188 L 49.644531 86.492188 L 49.644531 82.746094 L 69.511719 82.746094 L 69.511719 86.492188 " fill-opacity="1" fill-rule="nonzero"/></g><path fill="#f9a50d" d="M 67.375 82.746094 L 51.785156 82.746094 L 51.785156 80.566406 L 67.375 80.566406 L 67.375 82.746094 " fill-opacity="1" fill-rule="nonzero"/><path fill="#fdd605" d="M 55.070312 60.304688 C 51.550781 58.109375 49.203125 54.203125 49.203125 49.757812 L 49.203125 41.199219 C 49.203125 40.816406 49.515625 40.503906 49.898438 40.503906 C 50.285156 40.503906 50.597656 40.816406 50.597656 41.199219 L 50.597656 49.757812 C 50.597656 54.058594 53.070312 57.792969 56.671875 59.609375 C 56.148438 59.878906 55.613281 60.109375 55.070312 60.304688 " fill-opacity="1" fill-rule="nonzero"/><path fill="#fbc408" d="M 61.628906 62.175781 C 59.222656 62.175781 56.976562 61.488281 55.070312 60.304688 C 55.613281 60.109375 56.148438 59.878906 56.671875 59.609375 C 58.164062 60.363281 59.847656 60.785156 61.628906 60.785156 C 62.011719 60.785156 62.324219 61.097656 62.324219 61.480469 C 62.324219 61.867188 62.011719 62.175781 61.628906 62.175781 " fill-opacity="1" fill-rule="nonzero"/><g clip-path="url(#f00fea3419)"><path fill="#fbbf08" d="M 107.972656 87.757812 L 12.347656 87.757812 L 21.183594 99.902344 L 12.347656 112.027344 L 107.972656 112.027344 L 99.136719 99.902344 Z M 107.972656 87.757812 " fill-opacity="1" fill-rule="nonzero"/></g><g fill="#ffffff" fill-opacity="1"><g transform="translate(23.810335, 104.663617)"><g><path d="M 1.203125 -10 L 5.109375 -10 C 5.890625 -10 6.601562 -9.875 7.25 -9.625 C 7.90625 -9.375 8.46875 -9.023438 8.9375 -8.578125 C 9.414062 -8.128906 9.78125 -7.601562 10.03125 -7 C 10.289062 -6.394531 10.421875 -5.738281 10.421875 -5.03125 L 10.421875 -5 C 10.421875 -4.300781 10.289062 -3.644531 10.03125 -3.03125 C 9.78125 -2.414062 9.414062 -1.882812 8.9375 -1.4375 C 8.46875 -0.988281 7.90625 -0.632812 7.25 -0.375 C 6.601562 -0.125 5.890625 0 5.109375 0 L 1.203125 0 Z M 3.40625 -8.015625 L 3.40625 -1.984375 L 5.109375 -1.984375 C 5.554688 -1.984375 5.960938 -2.054688 6.328125 -2.203125 C 6.703125 -2.347656 7.019531 -2.550781 7.28125 -2.8125 C 7.539062 -3.082031 7.742188 -3.394531 7.890625 -3.75 C 8.046875 -4.113281 8.125 -4.519531 8.125 -4.96875 L 8.125 -5 C 8.125 -5.4375 8.046875 -5.84375 7.890625 -6.21875 C 7.742188 -6.59375 7.539062 -6.910156 7.28125 -7.171875 C 7.019531 -7.441406 6.703125 -7.648438 6.328125 -7.796875 C 5.960938 -7.941406 5.554688 -8.015625 5.109375 -8.015625 Z M 3.40625 -8.015625 "/></g></g></g><g fill="#ffffff" fill-opacity="1"><g transform="translate(34.992045, 104.663617)"><g><path d="M 4.015625 -3.953125 L 0.171875 -10 L 2.75 -10 L 5.125 -5.984375 L 7.5625 -10 L 10.0625 -10 L 6.21875 -3.984375 L 6.21875 0 L 4.015625 0 Z M 4.015625 -3.953125 "/></g></g></g><g fill="#ffffff" fill-opacity="1"><g transform="translate(45.230027, 104.663617)"><g><path d="M 1.203125 -10 L 3.234375 -10 L 7.921875 -3.84375 L 7.921875 -10 L 10.09375 -10 L 10.09375 0 L 8.21875 0 L 3.375 -6.359375 L 3.375 0 L 1.203125 0 Z M 1.203125 -10 "/></g></g></g><g fill="#ffffff" fill-opacity="1"><g transform="translate(56.526137, 104.663617)"><g><path d="M 4.625 -10.078125 L 6.65625 -10.078125 L 10.953125 0 L 8.65625 0 L 7.734375 -2.25 L 3.5 -2.25 L 2.59375 0 L 0.34375 0 Z M 6.953125 -4.1875 L 5.625 -7.4375 L 4.28125 -4.1875 Z M 6.953125 -4.1875 "/></g></g></g><g fill="#ffffff" fill-opacity="1"><g transform="translate(67.822247, 104.663617)"><g><path d="M 4.765625 0.140625 C 3.992188 0.140625 3.242188 0.0078125 2.515625 -0.25 C 1.785156 -0.507812 1.117188 -0.910156 0.515625 -1.453125 L 1.8125 -3.015625 C 2.269531 -2.640625 2.738281 -2.34375 3.21875 -2.125 C 3.707031 -1.90625 4.234375 -1.796875 4.796875 -1.796875 C 5.253906 -1.796875 5.609375 -1.878906 5.859375 -2.046875 C 6.117188 -2.210938 6.25 -2.445312 6.25 -2.75 L 6.25 -2.78125 C 6.25 -2.914062 6.222656 -3.035156 6.171875 -3.140625 C 6.117188 -3.253906 6.015625 -3.359375 5.859375 -3.453125 C 5.710938 -3.554688 5.507812 -3.65625 5.25 -3.75 C 4.988281 -3.84375 4.648438 -3.941406 4.234375 -4.046875 C 3.722656 -4.171875 3.265625 -4.304688 2.859375 -4.453125 C 2.453125 -4.609375 2.101562 -4.796875 1.8125 -5.015625 C 1.53125 -5.242188 1.3125 -5.523438 1.15625 -5.859375 C 1 -6.191406 0.921875 -6.609375 0.921875 -7.109375 L 0.921875 -7.140625 C 0.921875 -7.597656 1.003906 -8.007812 1.171875 -8.375 C 1.335938 -8.738281 1.578125 -9.050781 1.890625 -9.3125 C 2.203125 -9.582031 2.570312 -9.789062 3 -9.9375 C 3.425781 -10.082031 3.898438 -10.15625 4.421875 -10.15625 C 5.148438 -10.15625 5.820312 -10.046875 6.4375 -9.828125 C 7.050781 -9.609375 7.617188 -9.289062 8.140625 -8.875 L 6.984375 -7.21875 C 6.535156 -7.519531 6.097656 -7.757812 5.671875 -7.9375 C 5.242188 -8.113281 4.816406 -8.203125 4.390625 -8.203125 C 3.960938 -8.203125 3.640625 -8.117188 3.421875 -7.953125 C 3.210938 -7.785156 3.109375 -7.578125 3.109375 -7.328125 L 3.109375 -7.3125 C 3.109375 -7.144531 3.132812 -7 3.1875 -6.875 C 3.25 -6.757812 3.363281 -6.65625 3.53125 -6.5625 C 3.695312 -6.46875 3.921875 -6.375 4.203125 -6.28125 C 4.484375 -6.195312 4.835938 -6.097656 5.265625 -5.984375 C 5.765625 -5.859375 6.210938 -5.710938 6.609375 -5.546875 C 7.003906 -5.378906 7.335938 -5.175781 7.609375 -4.9375 C 7.878906 -4.707031 8.082031 -4.429688 8.21875 -4.109375 C 8.363281 -3.796875 8.4375 -3.421875 8.4375 -2.984375 L 8.4375 -2.953125 C 8.4375 -2.460938 8.34375 -2.023438 8.15625 -1.640625 C 7.976562 -1.253906 7.726562 -0.925781 7.40625 -0.65625 C 7.082031 -0.394531 6.695312 -0.195312 6.25 -0.0625 C 5.800781 0.0703125 5.304688 0.140625 4.765625 0.140625 Z M 4.765625 0.140625 "/></g></g></g><g fill="#ffffff" fill-opacity="1"><g transform="translate(76.97352, 104.663617)"><g><path d="M 3.53125 -7.984375 L 0.484375 -7.984375 L 0.484375 -10 L 8.78125 -10 L 8.78125 -7.984375 L 5.734375 -7.984375 L 5.734375 0 L 3.53125 0 Z M 3.53125 -7.984375 "/></g></g></g><g fill="#ffffff" fill-opacity="1"><g transform="translate(86.239193, 104.663617)"><g><path d="M 4.015625 -3.953125 L 0.171875 -10 L 2.75 -10 L 5.125 -5.984375 L 7.5625 -10 L 10.0625 -10 L 6.21875 -3.984375 L 6.21875 0 L 4.015625 0 Z M 4.015625 -3.953125 "/></g></g></g></svg>