<svg xmlns="http://www.w3.org/2000/svg" xmlns:xlink="http://www.w3.org/1999/xlink" width="100" zoomAndPan="magnify" viewBox="0 0 75 74.999997" height="100" preserveAspectRatio="xMidYMid meet" version="1.0"><defs><g/><clipPath id="76414121f2"><path d="M 57 27 L 62.6875 27 L 62.6875 33 L 57 33 Z M 57 27 " clip-rule="nonzero"/></clipPath><clipPath id="b17b0db014"><path d="M 58 21 L 62.6875 21 L 62.6875 28 L 58 28 Z M 58 21 " clip-rule="nonzero"/></clipPath><clipPath id="91dee28d05"><path d="M 42 2.488281 L 47 2.488281 L 47 8 L 42 8 Z M 42 2.488281 " clip-rule="nonzero"/></clipPath><clipPath id="741f6cb3ff"><path d="M 12.4375 27 L 18 27 L 18 33 L 12.4375 33 Z M 12.4375 27 " clip-rule="nonzero"/></clipPath><clipPath id="6bb2c80443"><path d="M 12.4375 21 L 17 21 L 17 28 L 12.4375 28 Z M 12.4375 21 " clip-rule="nonzero"/></clipPath><clipPath id="33420e13cb"><path d="M 28 2.488281 L 33 2.488281 L 33 8 L 28 8 Z M 28 2.488281 " clip-rule="nonzero"/></clipPath><clipPath id="8ee1399667"><path d="M 31 51 L 44 51 L 44 54.238281 L 31 54.238281 Z M 31 51 " clip-rule="nonzero"/></clipPath><clipPath id="8f978ae9e4"><path d="M 7.707031 54.851562 L 67.707031 54.851562 L 67.707031 69.851562 L 7.707031 69.851562 Z M 7.707031 54.851562 " clip-rule="nonzero"/></clipPath></defs><path fill="#f79410" d="M 52.738281 45.507812 C 50.085938 45.640625 47.855469 44.136719 47.855469 44.136719 C 47.855469 44.136719 49.925781 42.414062 52.582031 42.28125 C 55.230469 42.148438 57.464844 43.65625 57.464844 43.65625 C 57.464844 43.65625 55.394531 45.378906 52.738281 45.507812 " fill-opacity="1" fill-rule="nonzero"/><path fill="#f79410" d="M 50.453125 41.203125 C 49.753906 43.085938 47.902344 44.136719 47.902344 44.136719 C 47.902344 44.136719 47.179688 42.128906 47.878906 40.242188 C 48.578125 38.359375 50.433594 37.308594 50.433594 37.308594 C 50.433594 37.308594 51.152344 39.316406 50.453125 41.203125 " fill-opacity="1" fill-rule="nonzero"/><path fill="#f79410" d="M 54.179688 37.5625 C 53.730469 39.503906 52.1875 40.804688 52.1875 40.804688 C 52.1875 40.804688 51.375 38.957031 51.824219 37.015625 C 52.273438 35.070312 53.816406 33.773438 53.816406 33.773438 C 53.816406 33.773438 54.628906 35.621094 54.179688 37.5625 " fill-opacity="1" fill-rule="nonzero"/><path fill="#f79410" d="M 56.96875 32.117188 C 57.0625 34.109375 55.929688 35.777344 55.929688 35.777344 C 55.929688 35.777344 54.644531 34.222656 54.550781 32.230469 C 54.457031 30.238281 55.589844 28.570312 55.589844 28.570312 C 55.589844 28.570312 56.871094 30.125 56.96875 32.117188 " fill-opacity="1" fill-rule="nonzero"/><path fill="#f79410" d="M 57.75 24.929688 C 58.609375 26.726562 58.210938 28.707031 58.210938 28.707031 C 58.210938 28.707031 56.425781 27.769531 55.570312 25.972656 C 54.710938 24.171875 55.105469 22.195312 55.105469 22.195312 C 55.105469 22.195312 56.890625 23.128906 57.75 24.929688 " fill-opacity="1" fill-rule="nonzero"/><path fill="#f79410" d="M 56.679688 19.105469 C 57.996094 20.597656 58.164062 22.609375 58.164062 22.609375 C 58.164062 22.609375 56.191406 22.203125 54.867188 20.710938 C 53.546875 19.222656 53.382812 17.207031 53.382812 17.207031 C 53.382812 17.207031 55.355469 17.613281 56.679688 19.105469 " fill-opacity="1" fill-rule="nonzero"/><path fill="#f79410" d="M 53.796875 14.007812 C 55.539062 14.96875 56.371094 16.808594 56.371094 16.808594 C 56.371094 16.808594 54.375 17.089844 52.632812 16.125 C 50.886719 15.164062 50.058594 13.324219 50.058594 13.324219 C 50.058594 13.324219 52.054688 13.042969 53.796875 14.007812 " fill-opacity="1" fill-rule="nonzero"/><path fill="#f79410" d="M 50.121094 9.800781 C 52.023438 10.382812 53.214844 12.011719 53.214844 12.011719 C 53.214844 12.011719 51.316406 12.699219 49.414062 12.121094 C 47.511719 11.539062 46.320312 9.910156 46.320312 9.910156 C 46.320312 9.910156 48.214844 9.222656 50.121094 9.800781 " fill-opacity="1" fill-rule="nonzero"/><path fill="#f79410" d="M 44.53125 6.472656 C 46.519531 6.59375 48.058594 7.898438 48.058594 7.898438 C 48.058594 7.898438 46.375 9.011719 44.386719 8.890625 C 42.402344 8.773438 40.863281 7.464844 40.863281 7.464844 C 40.863281 7.464844 42.546875 6.355469 44.53125 6.472656 " fill-opacity="1" fill-rule="nonzero"/><path fill="#f79410" d="M 46.019531 42.960938 C 44.515625 45.457031 41.511719 46.402344 41.511719 46.402344 C 41.511719 46.402344 40.949219 43.300781 42.453125 40.804688 C 43.957031 38.3125 46.957031 37.367188 46.957031 37.367188 C 46.957031 37.367188 47.523438 40.46875 46.019531 42.960938 " fill-opacity="1" fill-rule="nonzero"/><path fill="#f79410" d="M 46.710938 49.523438 C 43.644531 48.875 41.550781 46.484375 41.550781 46.484375 C 41.550781 46.484375 44.429688 45.144531 47.5 45.792969 C 50.566406 46.441406 52.660156 48.832031 52.660156 48.832031 C 52.660156 48.832031 49.78125 50.171875 46.710938 49.523438 " fill-opacity="1" fill-rule="nonzero"/><path fill="#f79410" d="M 56.273438 40.71875 C 54.320312 41.445312 52.292969 40.84375 52.292969 40.84375 C 52.292969 40.84375 53.441406 39.066406 55.394531 38.339844 C 57.351562 37.613281 59.375 38.214844 59.375 38.214844 C 59.375 38.214844 58.230469 39.992188 56.273438 40.71875 " fill-opacity="1" fill-rule="nonzero"/><path fill="#f79410" d="M 59.273438 35.558594 C 57.585938 36.78125 55.476562 36.746094 55.476562 36.746094 C 55.476562 36.746094 56.101562 34.726562 57.789062 33.503906 C 59.476562 32.277344 61.589844 32.3125 61.589844 32.3125 C 61.589844 32.3125 60.964844 34.332031 59.273438 35.558594 " fill-opacity="1" fill-rule="nonzero"/><g clip-path="url(#76414121f2)"><path fill="#f79410" d="M 60.972656 30.613281 C 59.515625 32.105469 57.429688 32.433594 57.429688 32.433594 C 57.429688 32.433594 57.699219 30.335938 59.15625 28.839844 C 60.609375 27.347656 62.699219 27.019531 62.699219 27.019531 C 62.699219 27.019531 62.425781 29.117188 60.972656 30.613281 " fill-opacity="1" fill-rule="nonzero"/></g><g clip-path="url(#b17b0db014)"><path fill="#f79410" d="M 61.492188 25.210938 C 60.414062 26.996094 58.453125 27.785156 58.453125 27.785156 C 58.453125 27.785156 58.246094 25.679688 59.324219 23.894531 C 60.40625 22.109375 62.363281 21.320312 62.363281 21.320312 C 62.363281 21.320312 62.574219 23.421875 61.492188 25.210938 " fill-opacity="1" fill-rule="nonzero"/></g><path fill="#f79410" d="M 60.429688 19.273438 C 59.898438 21.292969 58.242188 22.609375 58.242188 22.609375 C 58.242188 22.609375 57.449219 20.648438 57.980469 18.628906 C 58.511719 16.609375 60.167969 15.296875 60.167969 15.296875 C 60.167969 15.296875 60.960938 17.257812 60.429688 19.273438 " fill-opacity="1" fill-rule="nonzero"/><path fill="#f79410" d="M 58.535156 14.128906 C 58.238281 16.195312 56.742188 17.6875 56.742188 17.6875 C 56.742188 17.6875 55.730469 15.832031 56.027344 13.765625 C 56.324219 11.699219 57.820312 10.203125 57.820312 10.203125 C 57.820312 10.203125 58.832031 12.0625 58.535156 14.128906 " fill-opacity="1" fill-rule="nonzero"/><path fill="#f79410" d="M 55.410156 10.019531 C 55.714844 12.082031 54.710938 13.945312 54.710938 13.945312 C 54.710938 13.945312 53.210938 12.457031 52.902344 10.390625 C 52.597656 8.324219 53.601562 6.464844 53.601562 6.464844 C 53.601562 6.464844 55.101562 7.953125 55.410156 10.019531 " fill-opacity="1" fill-rule="nonzero"/><path fill="#f79410" d="M 50.847656 6.453125 C 51.488281 8.105469 51.011719 9.832031 51.011719 9.832031 C 51.011719 9.832031 49.488281 8.886719 48.847656 7.234375 C 48.203125 5.585938 48.683594 3.855469 48.683594 3.855469 C 48.683594 3.855469 50.207031 4.804688 50.847656 6.453125 " fill-opacity="1" fill-rule="nonzero"/><g clip-path="url(#91dee28d05)"><path fill="#f79410" d="M 45.652344 4.144531 C 46.757812 5.425781 46.878906 7.140625 46.878906 7.140625 C 46.878906 7.140625 45.203125 6.773438 44.09375 5.488281 C 42.988281 4.207031 42.867188 2.492188 42.867188 2.492188 C 42.867188 2.492188 44.542969 2.859375 45.652344 4.144531 " fill-opacity="1" fill-rule="nonzero"/></g><path fill="#f79410" d="M 22.402344 45.507812 C 25.054688 45.640625 27.285156 44.136719 27.285156 44.136719 C 27.285156 44.136719 25.214844 42.414062 22.5625 42.28125 C 19.910156 42.148438 17.679688 43.65625 17.679688 43.65625 C 17.679688 43.65625 19.75 45.378906 22.402344 45.507812 " fill-opacity="1" fill-rule="nonzero"/><path fill="#f79410" d="M 24.6875 41.203125 C 25.386719 43.085938 27.242188 44.136719 27.242188 44.136719 C 27.242188 44.136719 27.960938 42.128906 27.261719 40.242188 C 26.5625 38.359375 24.707031 37.308594 24.707031 37.308594 C 24.707031 37.308594 23.988281 39.316406 24.6875 41.203125 " fill-opacity="1" fill-rule="nonzero"/><path fill="#f79410" d="M 20.960938 37.5625 C 21.410156 39.503906 22.953125 40.804688 22.953125 40.804688 C 22.953125 40.804688 23.765625 38.957031 23.316406 37.015625 C 22.867188 35.070312 21.324219 33.773438 21.324219 33.773438 C 21.324219 33.773438 20.511719 35.621094 20.960938 37.5625 " fill-opacity="1" fill-rule="nonzero"/><path fill="#f79410" d="M 17.996094 31.914062 C 17.902344 33.90625 19.035156 35.578125 19.035156 35.578125 C 19.035156 35.578125 20.316406 34.019531 20.414062 32.03125 C 20.507812 30.039062 19.375 28.367188 19.375 28.367188 C 19.375 28.367188 18.089844 29.921875 17.996094 31.914062 " fill-opacity="1" fill-rule="nonzero"/><path fill="#f79410" d="M 17.390625 24.929688 C 16.535156 26.726562 16.929688 28.707031 16.929688 28.707031 C 16.929688 28.707031 18.714844 27.769531 19.574219 25.972656 C 20.429688 24.171875 20.035156 22.195312 20.035156 22.195312 C 20.035156 22.195312 18.25 23.128906 17.390625 24.929688 " fill-opacity="1" fill-rule="nonzero"/><path fill="#f79410" d="M 18.464844 19.105469 C 17.144531 20.597656 16.976562 22.609375 16.976562 22.609375 C 16.976562 22.609375 18.953125 22.203125 20.273438 20.710938 C 21.59375 19.222656 21.761719 17.207031 21.761719 17.207031 C 21.761719 17.207031 19.785156 17.613281 18.464844 19.105469 " fill-opacity="1" fill-rule="nonzero"/><path fill="#f79410" d="M 21.34375 14.007812 C 19.601562 14.96875 18.773438 16.808594 18.773438 16.808594 C 18.773438 16.808594 20.769531 17.089844 22.511719 16.125 C 24.253906 15.164062 25.082031 13.324219 25.082031 13.324219 C 25.082031 13.324219 23.085938 13.042969 21.34375 14.007812 " fill-opacity="1" fill-rule="nonzero"/><path fill="#f79410" d="M 25.023438 9.800781 C 23.117188 10.382812 21.929688 12.011719 21.929688 12.011719 C 21.929688 12.011719 23.824219 12.699219 25.726562 12.121094 C 27.628906 11.539062 28.820312 9.910156 28.820312 9.910156 C 28.820312 9.910156 26.925781 9.222656 25.023438 9.800781 " fill-opacity="1" fill-rule="nonzero"/><path fill="#f79410" d="M 30.609375 6.472656 C 28.625 6.59375 27.085938 7.898438 27.085938 7.898438 C 27.085938 7.898438 28.769531 9.011719 30.753906 8.890625 C 32.742188 8.773438 34.28125 7.464844 34.28125 7.464844 C 34.28125 7.464844 32.59375 6.355469 30.609375 6.472656 " fill-opacity="1" fill-rule="nonzero"/><path fill="#f79410" d="M 29.125 42.960938 C 30.628906 45.457031 33.628906 46.402344 33.628906 46.402344 C 33.628906 46.402344 34.195312 43.300781 32.691406 40.804688 C 31.1875 38.3125 28.183594 37.367188 28.183594 37.367188 C 28.183594 37.367188 27.621094 40.46875 29.125 42.960938 " fill-opacity="1" fill-rule="nonzero"/><path fill="#f79410" d="M 28.429688 49.523438 C 31.496094 48.875 33.589844 46.484375 33.589844 46.484375 C 33.589844 46.484375 30.710938 45.144531 27.644531 45.792969 C 24.574219 46.441406 22.480469 48.832031 22.480469 48.832031 C 22.480469 48.832031 25.363281 50.171875 28.429688 49.523438 " fill-opacity="1" fill-rule="nonzero"/><path fill="#f79410" d="M 18.867188 40.71875 C 20.824219 41.445312 22.847656 40.84375 22.847656 40.84375 C 22.847656 40.84375 21.703125 39.066406 19.746094 38.339844 C 17.792969 37.613281 15.769531 38.214844 15.769531 38.214844 C 15.769531 38.214844 16.914062 39.992188 18.867188 40.71875 " fill-opacity="1" fill-rule="nonzero"/><path fill="#f79410" d="M 15.960938 35.792969 C 17.648438 37.019531 19.761719 36.984375 19.761719 36.984375 C 19.761719 36.984375 19.136719 34.964844 17.445312 33.738281 C 15.757812 32.515625 13.648438 32.550781 13.648438 32.550781 C 13.648438 32.550781 14.273438 34.570312 15.960938 35.792969 " fill-opacity="1" fill-rule="nonzero"/><g clip-path="url(#741f6cb3ff)"><path fill="#f79410" d="M 14.171875 30.613281 C 15.625 32.105469 17.714844 32.433594 17.714844 32.433594 C 17.714844 32.433594 17.441406 30.335938 15.984375 28.839844 C 14.53125 27.347656 12.445312 27.019531 12.445312 27.019531 C 12.445312 27.019531 12.714844 29.117188 14.171875 30.613281 " fill-opacity="1" fill-rule="nonzero"/></g><g clip-path="url(#6bb2c80443)"><path fill="#f79410" d="M 13.648438 25.210938 C 14.730469 26.996094 16.6875 27.785156 16.6875 27.785156 C 16.6875 27.785156 16.894531 25.679688 15.816406 23.894531 C 14.734375 22.109375 12.777344 21.320312 12.777344 21.320312 C 12.777344 21.320312 12.570312 23.421875 13.648438 25.210938 " fill-opacity="1" fill-rule="nonzero"/></g><path fill="#f79410" d="M 14.710938 19.273438 C 15.242188 21.292969 16.898438 22.609375 16.898438 22.609375 C 16.898438 22.609375 17.691406 20.648438 17.160156 18.628906 C 16.628906 16.609375 14.976562 15.296875 14.976562 15.296875 C 14.976562 15.296875 14.179688 17.257812 14.710938 19.273438 " fill-opacity="1" fill-rule="nonzero"/><path fill="#f79410" d="M 16.605469 14.128906 C 16.90625 16.195312 18.398438 17.6875 18.398438 17.6875 C 18.398438 17.6875 19.410156 15.832031 19.113281 13.765625 C 18.816406 11.699219 17.320312 10.203125 17.320312 10.203125 C 17.320312 10.203125 16.308594 12.0625 16.605469 14.128906 " fill-opacity="1" fill-rule="nonzero"/><path fill="#f79410" d="M 19.734375 10.019531 C 19.425781 12.082031 20.429688 13.945312 20.429688 13.945312 C 20.429688 13.945312 21.929688 12.457031 22.238281 10.390625 C 22.546875 8.324219 21.539062 6.464844 21.539062 6.464844 C 21.539062 6.464844 20.039062 7.953125 19.734375 10.019531 " fill-opacity="1" fill-rule="nonzero"/><path fill="#f79410" d="M 24.292969 6.453125 C 23.652344 8.105469 24.132812 9.832031 24.132812 9.832031 C 24.132812 9.832031 25.652344 8.886719 26.296875 7.234375 C 26.9375 5.585938 26.457031 3.855469 26.457031 3.855469 C 26.457031 3.855469 24.9375 4.804688 24.292969 6.453125 " fill-opacity="1" fill-rule="nonzero"/><g clip-path="url(#33420e13cb)"><path fill="#f79410" d="M 29.488281 4.144531 C 28.382812 5.425781 28.265625 7.140625 28.265625 7.140625 C 28.265625 7.140625 29.941406 6.773438 31.046875 5.488281 C 32.15625 4.207031 32.273438 2.492188 32.273438 2.492188 C 32.273438 2.492188 30.597656 2.859375 29.488281 4.144531 " fill-opacity="1" fill-rule="nonzero"/></g><path fill="#f79410" d="M 40.820312 5.070312 C 42.113281 5.257812 43.390625 5.5625 44.628906 5.988281 C 45.871094 6.414062 47.066406 6.960938 48.207031 7.613281 C 50.484375 8.917969 52.523438 10.65625 54.175781 12.707031 C 55.832031 14.761719 57.09375 17.128906 57.882812 19.65625 C 58.671875 22.179688 58.980469 24.851562 58.800781 27.492188 C 58.625 30.136719 57.945312 32.75 56.800781 35.144531 C 55.660156 37.542969 54.070312 39.722656 52.136719 41.539062 C 50.207031 43.359375 47.929688 44.8125 45.464844 45.800781 C 43 46.789062 40.347656 47.304688 37.695312 47.320312 C 35.039062 47.339844 32.382812 46.859375 29.90625 45.902344 C 27.425781 44.949219 25.128906 43.527344 23.175781 41.734375 C 21.21875 39.941406 19.597656 37.785156 18.425781 35.402344 C 17.839844 34.210938 17.363281 32.96875 17.011719 31.691406 C 16.660156 30.410156 16.433594 29.101562 16.324219 27.78125 C 16.109375 25.140625 16.382812 22.464844 17.136719 19.929688 C 17.890625 17.394531 19.125 15.007812 20.75 12.933594 C 22.378906 10.859375 24.390625 9.097656 26.648438 7.761719 C 27.78125 7.09375 28.972656 6.53125 30.203125 6.089844 C 31.4375 5.648438 32.710938 5.324219 34.003906 5.121094 C 34.089844 5.109375 34.171875 5.167969 34.1875 5.257812 C 34.199219 5.34375 34.140625 5.421875 34.054688 5.4375 C 31.523438 5.90625 29.089844 6.847656 26.90625 8.191406 C 24.726562 9.535156 22.804688 11.289062 21.261719 13.332031 C 19.714844 15.363281 18.550781 17.683594 17.855469 20.136719 C 17.152344 22.589844 16.925781 25.171875 17.160156 27.707031 C 17.394531 30.242188 18.105469 32.726562 19.242188 34.996094 C 20.375 37.269531 21.9375 39.324219 23.820312 41.023438 C 25.699219 42.726562 27.886719 44.085938 30.253906 44.988281 C 32.621094 45.894531 35.15625 46.34375 37.6875 46.324219 C 40.21875 46.3125 42.75 45.824219 45.101562 44.886719 C 47.457031 43.953125 49.625 42.566406 51.484375 40.839844 C 53.339844 39.113281 54.875 37.035156 55.976562 34.75 C 57.082031 32.460938 57.761719 29.96875 57.960938 27.433594 C 58.164062 24.894531 57.898438 22.316406 57.164062 19.875 C 56.433594 17.429688 55.238281 15.128906 53.664062 13.113281 C 52.097656 11.097656 50.152344 9.367188 47.953125 8.050781 C 46.851562 7.394531 45.691406 6.835938 44.488281 6.394531 C 43.28125 5.949219 42.039062 5.613281 40.765625 5.398438 C 40.675781 5.382812 40.617188 5.296875 40.632812 5.207031 C 40.644531 5.117188 40.730469 5.058594 40.816406 5.070312 L 40.820312 5.070312 " fill-opacity="1" fill-rule="nonzero"/><path fill="#fbbf09" d="M 38.75 13.335938 L 41.808594 13.34375 L 39.390625 15.21875 L 40.328125 18.128906 L 37.800781 16.40625 L 35.324219 18.199219 L 36.175781 15.261719 L 33.710938 13.453125 L 36.765625 13.359375 L 37.71875 10.453125 L 38.75 13.335938 " fill-opacity="1" fill-rule="nonzero"/><path fill="#fbbf09" d="M 47.011719 16.71875 L 48.867188 16.726562 L 47.398438 17.867188 L 47.96875 19.636719 L 46.433594 18.589844 L 44.925781 19.679688 L 45.445312 17.894531 L 43.945312 16.792969 L 45.800781 16.738281 L 46.382812 14.96875 L 47.011719 16.71875 " fill-opacity="1" fill-rule="nonzero"/><path fill="#fbbf09" d="M 29.339844 16.71875 L 31.199219 16.726562 L 29.726562 17.867188 L 30.296875 19.636719 L 28.761719 18.589844 L 27.253906 19.679688 L 27.773438 17.894531 L 26.273438 16.792969 L 28.132812 16.738281 L 28.710938 14.96875 L 29.339844 16.71875 " fill-opacity="1" fill-rule="nonzero"/><path fill="#fbbf09" d="M 40.046875 52.710938 L 34.523438 52.710938 L 36.046875 38.558594 L 38.519531 38.558594 L 40.046875 52.710938 " fill-opacity="1" fill-rule="nonzero"/><path fill="#fbbf09" d="M 38.238281 38.558594 L 38.238281 36.828125 C 41.957031 36.828125 44.394531 35.726562 46.308594 33.5625 C 48.816406 30.730469 49.101562 26.746094 49.097656 25.078125 L 42.496094 25.078125 L 42.496094 23.34375 L 50.675781 23.34375 L 50.75 24.125 C 50.773438 24.386719 51.292969 30.488281 47.5625 34.71875 C 45.316406 37.265625 42.457031 38.558594 38.238281 38.558594 " fill-opacity="1" fill-rule="nonzero"/><path fill="#f89b0f" d="M 49.097656 25.078125 L 44.625 25.078125 L 44.625 24.632812 L 49.097656 24.632812 C 49.097656 24.765625 49.105469 24.914062 49.097656 25.078125 " fill-opacity="1" fill-rule="nonzero"/><path fill="#f89b0f" d="M 42.164062 38.097656 C 42.472656 37.820312 42.757812 37.515625 43.019531 37.191406 C 44.585938 36.550781 45.886719 35.578125 47.039062 34.273438 C 50.769531 30.042969 50.246094 23.941406 50.222656 23.683594 L 50.191406 23.34375 L 50.675781 23.34375 L 50.75 24.125 C 50.753906 24.1875 50.785156 24.558594 50.785156 25.148438 C 50.785156 27.109375 50.429688 31.46875 47.5625 34.71875 C 46.09375 36.382812 44.363281 37.511719 42.164062 38.097656 " fill-opacity="1" fill-rule="nonzero"/><path fill="#fbbf09" d="M 36.328125 38.558594 L 36.328125 36.828125 C 32.609375 36.828125 30.171875 35.726562 28.257812 33.5625 C 25.75 30.730469 25.46875 26.746094 25.46875 25.078125 L 32.070312 25.078125 L 32.070312 23.34375 L 23.890625 23.34375 L 23.816406 24.125 C 23.792969 24.386719 23.273438 30.488281 27.003906 34.71875 C 29.25 37.265625 32.109375 38.558594 36.328125 38.558594 " fill-opacity="1" fill-rule="nonzero"/><path fill="#f89b0f" d="M 29.941406 25.078125 L 25.46875 25.078125 C 25.464844 24.914062 25.46875 24.765625 25.46875 24.632812 L 29.941406 24.632812 L 29.941406 25.078125 " fill-opacity="1" fill-rule="nonzero"/><path fill="#f89b0f" d="M 32.402344 38.097656 C 30.203125 37.511719 28.472656 36.382812 27.003906 34.71875 C 24.136719 31.46875 23.78125 27.109375 23.78125 25.148438 C 23.78125 24.558594 23.8125 24.1875 23.816406 24.125 L 23.890625 23.34375 L 24.375 23.34375 L 24.34375 23.683594 C 24.320312 23.941406 23.796875 30.042969 27.527344 34.273438 C 28.679688 35.578125 29.980469 36.550781 31.546875 37.191406 C 31.808594 37.515625 32.09375 37.820312 32.402344 38.097656 " fill-opacity="1" fill-rule="nonzero"/><path fill="#fbbf09" d="M 29.941406 20.605469 L 29.941406 32.601562 C 29.941406 36.660156 33.226562 39.953125 37.285156 39.953125 C 41.339844 39.953125 44.625 36.660156 44.625 32.601562 L 44.625 20.605469 L 29.941406 20.605469 " fill-opacity="1" fill-rule="nonzero"/><path fill="#f8a00e" d="M 37.285156 39.953125 C 37.28125 39.953125 37.277344 39.953125 37.273438 39.953125 C 37.269531 39.953125 37.265625 39.953125 37.261719 39.953125 C 37.257812 39.953125 37.253906 39.953125 37.253906 39.953125 C 37.25 39.953125 37.25 39.953125 37.25 39.953125 C 37.246094 39.953125 37.246094 39.953125 37.242188 39.953125 C 37.234375 39.953125 37.226562 39.953125 37.21875 39.953125 C 37.214844 39.953125 37.210938 39.953125 37.210938 39.953125 L 37.207031 39.953125 C 35.429688 39.9375 33.800781 39.285156 32.539062 38.210938 C 33.195312 38.175781 33.835938 38.039062 34.460938 37.816406 C 35.652344 38.5625 37.058594 38.992188 38.566406 38.992188 C 38.804688 38.992188 39 38.796875 39 38.558594 C 39 38.316406 38.804688 38.121094 38.566406 38.121094 C 37.449219 38.121094 36.398438 37.855469 35.464844 37.382812 C 40.101562 35 43.523438 28.03125 43.523438 22.933594 C 43.523438 22.921875 43.523438 22.910156 43.523438 22.902344 L 44.46875 22.902344 C 44.523438 22.902344 44.574219 22.898438 44.625 22.890625 L 44.625 32.601562 C 44.625 36.660156 41.339844 39.953125 37.285156 39.953125 " fill-opacity="1" fill-rule="nonzero"/><path fill="#f79011" d="M 45.675781 21.695312 C 45.675781 22.359375 45.136719 22.902344 44.46875 22.902344 L 30.097656 22.902344 C 29.429688 22.902344 28.890625 22.359375 28.890625 21.695312 C 28.890625 21.027344 29.429688 20.484375 30.097656 20.484375 L 44.46875 20.484375 C 45.136719 20.484375 45.675781 21.027344 45.675781 21.695312 " fill-opacity="1" fill-rule="nonzero"/><path fill="#faba09" d="M 44.101562 21.867188 L 29.925781 21.867188 C 29.636719 21.867188 29.402344 21.632812 29.402344 21.34375 C 29.402344 21.054688 29.636719 20.820312 29.925781 20.820312 L 44.101562 20.820312 C 44.390625 20.820312 44.625 21.054688 44.625 21.34375 C 44.625 21.632812 44.390625 21.867188 44.101562 21.867188 " fill-opacity="1" fill-rule="nonzero"/><g clip-path="url(#8ee1399667)"><path fill="#f68912" d="M 43.503906 54.246094 L 31.0625 54.246094 L 31.0625 51.894531 L 43.503906 51.894531 L 43.503906 54.246094 " fill-opacity="1" fill-rule="nonzero"/></g><path fill="#f9a50d" d="M 42.164062 51.894531 L 32.402344 51.894531 L 32.402344 50.527344 L 42.164062 50.527344 L 42.164062 51.894531 " fill-opacity="1" fill-rule="nonzero"/><path fill="#fdd605" d="M 34.460938 37.816406 C 32.257812 36.441406 30.785156 33.988281 30.785156 31.203125 L 30.785156 25.835938 C 30.785156 25.59375 30.980469 25.398438 31.222656 25.398438 C 31.464844 25.398438 31.660156 25.59375 31.660156 25.835938 L 31.660156 31.203125 C 31.660156 33.902344 33.207031 36.242188 35.464844 37.382812 C 35.136719 37.550781 34.800781 37.699219 34.460938 37.816406 " fill-opacity="1" fill-rule="nonzero"/><path fill="#fbc408" d="M 38.566406 38.992188 C 37.058594 38.992188 35.652344 38.5625 34.460938 37.816406 C 34.800781 37.699219 35.136719 37.550781 35.464844 37.382812 C 36.398438 37.855469 37.449219 38.121094 38.566406 38.121094 C 38.804688 38.121094 39 38.316406 39 38.558594 C 39 38.796875 38.804688 38.992188 38.566406 38.992188 " fill-opacity="1" fill-rule="nonzero"/><g clip-path="url(#8f978ae9e4)"><path fill="#fbbf08" d="M 67.476562 54.851562 L 7.726562 54.851562 L 13.25 62.4375 L 7.726562 70.015625 L 67.476562 70.015625 L 61.953125 62.4375 Z M 67.476562 54.851562 " fill-opacity="1" fill-rule="nonzero"/></g><g fill="#ffffff" fill-opacity="1"><g transform="translate(14.881461, 65.414758)"><g><path d="M 0.75 -6.25 L 3.1875 -6.25 C 3.675781 -6.25 4.125 -6.171875 4.53125 -6.015625 C 4.9375 -5.859375 5.285156 -5.640625 5.578125 -5.359375 C 5.878906 -5.078125 6.109375 -4.75 6.265625 -4.375 C 6.429688 -4 6.515625 -3.585938 6.515625 -3.140625 L 6.515625 -3.125 C 6.515625 -2.6875 6.429688 -2.273438 6.265625 -1.890625 C 6.109375 -1.515625 5.878906 -1.1875 5.578125 -0.90625 C 5.285156 -0.625 4.9375 -0.398438 4.53125 -0.234375 C 4.125 -0.078125 3.675781 0 3.1875 0 L 0.75 0 Z M 2.125 -5.015625 L 2.125 -1.25 L 3.1875 -1.25 C 3.46875 -1.25 3.722656 -1.289062 3.953125 -1.375 C 4.191406 -1.46875 4.390625 -1.597656 4.546875 -1.765625 C 4.710938 -1.929688 4.84375 -2.125 4.9375 -2.34375 C 5.03125 -2.570312 5.078125 -2.828125 5.078125 -3.109375 L 5.078125 -3.125 C 5.078125 -3.40625 5.03125 -3.660156 4.9375 -3.890625 C 4.84375 -4.117188 4.710938 -4.316406 4.546875 -4.484375 C 4.390625 -4.648438 4.191406 -4.78125 3.953125 -4.875 C 3.722656 -4.96875 3.46875 -5.015625 3.1875 -5.015625 Z M 2.125 -5.015625 "/></g></g></g><g fill="#ffffff" fill-opacity="1"><g transform="translate(21.870029, 65.414758)"><g><path d="M 2.515625 -2.46875 L 0.109375 -6.25 L 1.71875 -6.25 L 3.203125 -3.75 L 4.734375 -6.25 L 6.296875 -6.25 L 3.890625 -2.5 L 3.890625 0 L 2.515625 0 Z M 2.515625 -2.46875 "/></g></g></g><g fill="#ffffff" fill-opacity="1"><g transform="translate(28.268768, 65.414758)"><g><path d="M 0.75 -6.25 L 2.015625 -6.25 L 4.953125 -2.40625 L 4.953125 -6.25 L 6.3125 -6.25 L 6.3125 0 L 5.140625 0 L 2.109375 -3.984375 L 2.109375 0 L 0.75 0 Z M 0.75 -6.25 "/></g></g></g><g fill="#ffffff" fill-opacity="1"><g transform="translate(35.328836, 65.414758)"><g><path d="M 2.890625 -6.296875 L 4.171875 -6.296875 L 6.84375 0 L 5.40625 0 L 4.828125 -1.40625 L 2.1875 -1.40625 L 1.625 0 L 0.21875 0 Z M 4.34375 -2.625 L 3.515625 -4.640625 L 2.6875 -2.625 Z M 4.34375 -2.625 "/></g></g></g><g fill="#ffffff" fill-opacity="1"><g transform="translate(42.388905, 65.414758)"><g><path d="M 2.96875 0.09375 C 2.5 0.09375 2.035156 0.0078125 1.578125 -0.15625 C 1.117188 -0.320312 0.703125 -0.570312 0.328125 -0.90625 L 1.140625 -1.890625 C 1.421875 -1.648438 1.710938 -1.460938 2.015625 -1.328125 C 2.316406 -1.191406 2.644531 -1.125 3 -1.125 C 3.289062 -1.125 3.515625 -1.175781 3.671875 -1.28125 C 3.828125 -1.382812 3.90625 -1.53125 3.90625 -1.71875 L 3.90625 -1.734375 C 3.90625 -1.828125 3.890625 -1.90625 3.859375 -1.96875 C 3.828125 -2.039062 3.765625 -2.101562 3.671875 -2.15625 C 3.578125 -2.21875 3.445312 -2.28125 3.28125 -2.34375 C 3.113281 -2.40625 2.898438 -2.46875 2.640625 -2.53125 C 2.328125 -2.601562 2.039062 -2.6875 1.78125 -2.78125 C 1.53125 -2.882812 1.3125 -3.003906 1.125 -3.140625 C 0.945312 -3.285156 0.8125 -3.460938 0.71875 -3.671875 C 0.625 -3.878906 0.578125 -4.132812 0.578125 -4.4375 L 0.578125 -4.453125 C 0.578125 -4.742188 0.628906 -5.003906 0.734375 -5.234375 C 0.835938 -5.460938 0.984375 -5.660156 1.171875 -5.828125 C 1.367188 -5.992188 1.601562 -6.117188 1.875 -6.203125 C 2.144531 -6.296875 2.441406 -6.34375 2.765625 -6.34375 C 3.222656 -6.34375 3.644531 -6.273438 4.03125 -6.140625 C 4.414062 -6.003906 4.765625 -5.804688 5.078125 -5.546875 L 4.375 -4.515625 C 4.09375 -4.703125 3.816406 -4.847656 3.546875 -4.953125 C 3.273438 -5.066406 3.007812 -5.125 2.75 -5.125 C 2.476562 -5.125 2.273438 -5.070312 2.140625 -4.96875 C 2.003906 -4.863281 1.9375 -4.734375 1.9375 -4.578125 L 1.9375 -4.5625 C 1.9375 -4.46875 1.957031 -4.378906 2 -4.296875 C 2.039062 -4.222656 2.109375 -4.15625 2.203125 -4.09375 C 2.304688 -4.039062 2.445312 -3.988281 2.625 -3.9375 C 2.800781 -3.882812 3.019531 -3.820312 3.28125 -3.75 C 3.601562 -3.664062 3.882812 -3.570312 4.125 -3.46875 C 4.375 -3.363281 4.582031 -3.238281 4.75 -3.09375 C 4.925781 -2.945312 5.054688 -2.773438 5.140625 -2.578125 C 5.222656 -2.378906 5.265625 -2.144531 5.265625 -1.875 L 5.265625 -1.84375 C 5.265625 -1.539062 5.207031 -1.265625 5.09375 -1.015625 C 4.988281 -0.773438 4.832031 -0.570312 4.625 -0.40625 C 4.425781 -0.25 4.1875 -0.125 3.90625 -0.03125 C 3.625 0.0507812 3.3125 0.09375 2.96875 0.09375 Z M 2.96875 0.09375 "/></g></g></g><g fill="#ffffff" fill-opacity="1"><g transform="translate(48.108451, 65.414758)"><g><path d="M 2.203125 -4.984375 L 0.296875 -4.984375 L 0.296875 -6.25 L 5.484375 -6.25 L 5.484375 -4.984375 L 3.578125 -4.984375 L 3.578125 0 L 2.203125 0 Z M 2.203125 -4.984375 "/></g></g></g><g fill="#ffffff" fill-opacity="1"><g transform="translate(53.899496, 65.414758)"><g><path d="M 2.515625 -2.46875 L 0.109375 -6.25 L 1.71875 -6.25 L 3.203125 -3.75 L 4.734375 -6.25 L 6.296875 -6.25 L 3.890625 -2.5 L 3.890625 0 L 2.515625 0 Z M 2.515625 -2.46875 "/></g></g></g></svg>